PathFileType	4	(X/Y/Z)	C:\Users\86182\Documents\cortex\Trimmed_M4_H16.trc
DataRate	CameraRate	NumFrames	NumMarkers	Units	OrigDataRate	OrigDataStartFrame	OrigNumFrames
100.00	100.00	       98	2	mm	100.00	541	       901
Frame#	Time	gripper			box			
		X1	Y1	Z1	X2	Y2	Z2	

541	5.400	276.16437	151.11882	292.24890	278.03259	147.81506	156.63025	
542	5.410	276.16623	151.11899	292.24713	278.02826	147.81839	156.63083	
543	5.420	276.16660	151.11932	292.24615	278.02386	147.82117	156.63120	
544	5.430	276.16550	151.11983	292.24603	278.01987	147.82298	156.63129	
545	5.440	276.16312	151.12044	292.24670	278.01657	147.82405	156.63138	
546	5.450	276.15982	151.12106	292.24811	278.01407	147.82492	156.63229	
547	5.460	276.15601	151.12157	292.25012	278.01254	147.82596	156.63496	
548	5.470	276.15192	151.12192	292.25269	278.01233	147.82713	156.63965	
549	5.480	276.14798	151.12207	292.25549	278.01346	147.82817	156.64557	
550	5.490	276.14471	151.12201	292.25818	278.01572	147.82884	156.65137	
551	5.500	276.14258	151.12175	292.26038	278.01880	147.82895	156.65582	
552	5.510	276.14175	151.12137	292.26178	278.02237	147.82831	156.65802	
553	5.520	276.14233	151.12096	292.26215	278.02582	147.82706	156.65768	
554	5.530	276.14447	151.12057	292.26120	278.02850	147.82556	156.65504	
555	5.540	276.14810	151.12018	292.25909	278.02997	147.82445	156.65088	
556	5.550	276.15262	151.11978	292.25635	278.03000	147.82428	156.64636	
557	5.560	276.15704	151.11940	292.25360	278.02884	147.82535	156.64258	
558	5.570	276.16068	151.11902	292.25146	278.02692	147.82759	156.64038	
559	5.580	276.16293	151.11858	292.25052	278.02417	147.83093	156.64075	
560	5.590	276.16367	151.11806	292.25101	278.02054	147.83525	156.64432	
561	5.600	276.16293	151.11740	292.25287	278.01614	147.84016	156.65097	
562	5.610	276.16101	151.11662	292.25595	278.01175	147.84479	156.65976	
563	5.620	276.15833	151.11578	292.25970	278.00836	147.84807	156.66925	
564	5.630	276.15524	151.11514	292.26343	278.00677	147.84932	156.67792	
565	5.640	276.15231	151.11493	292.26617	278.00723	147.84850	156.68437	
566	5.650	276.15009	151.11526	292.26727	278.00909	147.84637	156.68768	
567	5.660	276.14890	151.11609	292.26660	278.01102	147.84431	156.68785	
568	5.670	276.14896	151.11714	292.26447	278.01202	147.84337	156.68564	
569	5.680	276.15024	151.11821	292.26132	278.01196	147.84378	156.68195	
570	5.690	276.15237	151.11913	292.25781	278.01166	147.84480	156.67731	
571	5.700	276.15494	151.11977	292.25452	278.01236	147.84528	156.67215	
572	5.710	276.15729	151.12013	292.25195	278.01495	147.84435	156.66718	
573	5.720	276.15894	151.12024	292.25043	278.01938	147.84184	156.66339	
574	5.730	276.15982	151.12010	292.25000	278.02475	147.83806	156.66162	
575	5.740	276.15976	151.11984	292.25055	278.03012	147.83339	156.66203	
576	5.750	276.15854	151.11964	292.25189	278.03488	147.82826	156.66440	
577	5.760	276.15622	151.11966	292.25372	278.03860	147.82318	156.66800	
578	5.770	276.15317	151.11992	292.25565	278.04117	147.81866	156.67178	
579	5.780	276.14990	151.12036	292.25732	278.04251	147.81502	156.67471	
580	5.790	276.14694	151.12086	292.25870	278.04266	147.81226	156.67603	
581	5.800	276.14450	151.12125	292.25986	278.04199	147.81004	156.67560	
582	5.810	276.14261	151.12143	292.26099	278.04108	147.80811	156.67365	
583	5.820	276.14124	151.12146	292.26199	278.04028	147.80646	156.67053	
584	5.830	276.14066	151.12135	292.26266	278.03949	147.80547	156.66678	
585	5.840	276.14117	151.12112	292.26276	278.03830	147.80569	156.66281	
586	5.850	276.14261	151.12086	292.26212	278.03638	147.80756	156.65912	
587	5.860	276.14453	151.12074	292.26080	278.03418	147.81068	156.65605	
588	5.870	276.14642	151.12080	292.25922	278.03278	147.81378	156.65375	
589	5.880	276.14771	151.12097	292.25787	278.03293	147.81572	156.65213	
590	5.890	276.14798	151.12120	292.25717	278.03427	147.81631	156.65125	
591	5.900	276.14716	151.12148	292.25729	278.03629	147.81560	156.65137	
592	5.910	276.14545	151.12170	292.25818	278.03897	147.81348	156.65282	
593	5.920	276.14337	151.12175	292.25977	278.04248	147.81017	156.65579	
594	5.930	276.14148	151.12148	292.26178	278.04626	147.80653	156.66028	
595	5.940	276.14029	151.12082	292.26404	278.04938	147.80360	156.66611	
596	5.950	276.14014	151.11984	292.26608	278.05103	147.80219	156.67279	
597	5.960	276.14111	151.11873	292.26752	278.05072	147.80276	156.67918	
598	5.970	276.14291	151.11777	292.26801	278.04846	147.80540	156.68372	
599	5.980	276.14493	151.11732	292.26727	278.04449	147.80969	156.68539	
600	5.990	276.14664	151.11763	292.26535	278.03906	147.81522	156.68408	
601	6.000	276.14792	151.11856	292.26248	278.03229	147.82170	156.68002	
602	6.010	276.14886	151.11986	292.25916	278.02475	147.82849	156.67380	
603	6.020	276.14954	151.12119	292.25601	278.01797	147.83414	156.66635	
604	6.030	276.14987	151.12231	292.25354	278.01346	147.83714	156.65921	
605	6.040	276.14966	151.12311	292.25208	278.01193	147.83705	156.65445	
606	6.050	276.14880	151.12358	292.25183	278.01297	147.83458	156.65366	
607	6.060	276.14731	151.12367	292.25281	278.01614	147.83069	156.65721	
608	6.070	276.14548	151.12338	292.25482	278.02087	147.82603	156.66403	
609	6.080	276.14407	151.12260	292.25748	278.02664	147.82108	156.67209	
610	6.090	276.14380	151.12131	292.26025	278.03278	147.81628	156.67932	
611	6.100	276.14484	151.11972	292.26257	278.03854	147.81213	156.68411	
612	6.110	276.14691	151.11823	292.26385	278.04300	147.80914	156.68582	
613	6.120	276.14957	151.11720	292.26379	278.04532	147.80783	156.68468	
614	6.130	276.15247	151.11679	292.26233	278.04538	147.80836	156.68146	
615	6.140	276.15524	151.11693	292.25989	278.04361	147.81058	156.67709	
616	6.150	276.15765	151.11746	292.25696	278.04056	147.81407	156.67261	
617	6.160	276.15945	151.11821	292.25403	278.03680	147.81831	156.66902	
618	6.170	276.16068	151.11897	292.25153	278.03287	147.82266	156.66708	
619	6.180	276.16141	151.11957	292.24976	278.02921	147.82660	156.66696	
620	6.190	276.16153	151.11996	292.24890	278.02585	147.82971	156.66808	
621	6.200	276.16089	151.12019	292.24896	278.02295	147.83170	156.66942	
622	6.210	276.15948	151.12030	292.24985	278.02051	147.83252	156.67023	
623	6.220	276.15765	151.12032	292.25128	278.01843	147.83252	156.67020	
624	6.230	276.15582	151.12024	292.25287	278.01703	147.83208	156.66946	
625	6.240	276.15433	151.12013	292.25427	278.01688	147.83122	156.66815	
626	6.250	276.15344	151.12001	292.25525	278.01828	147.82997	156.66663	
627	6.260	276.15350	151.11984	292.25552	278.02112	147.82857	156.66534	
628	6.270	276.15475	151.11958	292.25504	278.02499	147.82721	156.66461	
629	6.280	276.15720	151.11925	292.25378	278.02942	147.82591	156.66431	
630	6.290	276.16043	151.11885	292.25198	278.03394	147.82440	156.66425	
631	6.300	276.16382	151.11847	292.25006	278.03824	147.82233	156.66406	
632	6.310	276.16672	151.11819	292.24832	278.04224	147.81938	156.66327	
633	6.320	276.16873	151.11804	292.24701	278.04553	147.81572	156.66138	
634	6.330	276.16977	151.11807	292.24609	278.04736	147.81198	156.65817	
635	6.340	276.16980	151.11827	292.24573	278.04727	147.80887	156.65384	
636	6.350	276.16888	151.11858	292.24585	278.04526	147.80663	156.64876	
637	6.360	276.16714	151.11894	292.24646	278.04169	147.80524	156.64349	
638	6.370	276.16461	151.11935	292.24765	278.03720	147.80444	156.63861	
